<svg xmlns="http://www.w3.org/2000/svg" xmlns:xlink="http://www.w3.org/1999/xlink" width="500" zoomAndPan="magnify" viewBox="0 0 375 374.999991" height="500" preserveAspectRatio="xMidYMid meet" version="1.0"><defs><g/></defs><g fill="#074ba5" fill-opacity="1"><g transform="translate(53.525077, 235.676145)"><g><path d="M 24.3125 -31.046875 L 36.15625 -31.046875 L 36.15625 -30.203125 L 33.71875 -30.203125 L 33.71875 -0.84375 L 36.15625 -0.84375 L 36.15625 0 L 22.625 0 L 22.625 -0.84375 L 25.0625 -0.84375 L 25.0625 -28.5625 L 24.890625 -28.5625 L 18.234375 0 L 12.6875 0 L 4.875 -28.703125 L 4.703125 -28.703125 L 4.703125 -0.84375 L 7.140625 -0.84375 L 7.140625 0 L 1.109375 0 L 1.109375 -0.84375 L 3.546875 -0.84375 L 3.546875 -30.203125 L 1.109375 -30.203125 L 1.109375 -31.046875 L 13.09375 -31.046875 L 18.984375 -8.203125 Z M 24.3125 -31.046875 "/></g></g></g><g fill="#074ba5" fill-opacity="1"><g transform="translate(90.781486, 235.676145)"><g><path d="M 12.109375 0.4375 C 8.296875 0.4375 5.4375 -0.539062 3.53125 -2.5 C 1.625 -4.46875 0.671875 -7.203125 0.671875 -10.703125 C 0.671875 -14.210938 1.738281 -16.898438 3.875 -18.765625 C 6.019531 -20.628906 8.75 -21.5625 12.0625 -21.5625 C 18.78125 -21.5625 22.003906 -18.1875 21.734375 -11.4375 L 9.234375 -11.4375 L 9.234375 -9.71875 C 9.234375 -6.820312 9.597656 -4.632812 10.328125 -3.15625 C 11.066406 -1.675781 12.351562 -0.9375 14.1875 -0.9375 C 17.625 -0.9375 19.875 -2.769531 20.9375 -6.4375 L 21.734375 -6.296875 C 21.171875 -4.171875 20.15625 -2.515625 18.6875 -1.328125 C 17.226562 -0.148438 15.035156 0.4375 12.109375 0.4375 Z M 9.265625 -12.328125 L 13.84375 -12.328125 L 13.84375 -14.5 C 13.84375 -16.894531 13.703125 -18.53125 13.421875 -19.40625 C 13.140625 -20.28125 12.578125 -20.71875 11.734375 -20.71875 C 10.890625 -20.71875 10.265625 -20.25 9.859375 -19.3125 C 9.460938 -18.382812 9.265625 -16.78125 9.265625 -14.5 Z M 9.265625 -12.328125 "/></g></g></g><g fill="#074ba5" fill-opacity="1"><g transform="translate(113.667566, 235.676145)"><g><path d="M 9.453125 -9.1875 C 9.453125 -6.082031 9.613281 -4.019531 9.9375 -3 C 10.257812 -1.976562 10.859375 -1.46875 11.734375 -1.46875 C 12.609375 -1.46875 13.363281 -1.847656 14 -2.609375 C 14.632812 -3.378906 14.953125 -4.519531 14.953125 -6.03125 L 14.953125 -15.703125 C 14.953125 -16.972656 14.695312 -18.050781 14.1875 -18.9375 C 13.6875 -19.820312 12.945312 -20.265625 11.96875 -20.265625 C 11 -20.265625 10.335938 -19.613281 9.984375 -18.3125 C 9.628906 -17.019531 9.453125 -14.742188 9.453125 -11.484375 Z M 15.53125 0 L 15.03125 -3.109375 C 14.03125 -0.742188 11.992188 0.4375 8.921875 0.4375 C 6.367188 0.4375 4.390625 -0.476562 2.984375 -2.3125 C 1.585938 -4.144531 0.890625 -6.878906 0.890625 -10.515625 C 0.890625 -17.878906 3.816406 -21.5625 9.671875 -21.5625 C 12.273438 -21.5625 13.988281 -20.835938 14.8125 -19.390625 L 14.8125 -32.46875 L 12.109375 -32.46875 L 12.109375 -33.265625 L 23.203125 -33.265625 L 23.203125 -0.796875 L 25.375 -0.796875 L 25.375 0 Z M 15.53125 0 "/></g></g></g><g fill="#074ba5" fill-opacity="1"><g transform="translate(139.747052, 235.676145)"><g><path d="M 0.9375 -31.046875 L 24 -31.046875 L 24.4375 -22.265625 L 23.640625 -22.265625 C 22.398438 -25.253906 21.097656 -27.300781 19.734375 -28.40625 C 18.378906 -29.519531 16.382812 -30.078125 13.75 -30.078125 L 12.203125 -30.078125 L 12.203125 -16.375 L 13.703125 -16.375 C 15.097656 -16.375 16.265625 -16.894531 17.203125 -17.9375 C 18.148438 -18.988281 18.816406 -20.40625 19.203125 -22.1875 L 19.875 -22.1875 L 19.875 -9.046875 L 19.125 -9.046875 C 18.59375 -11.265625 17.875 -12.847656 16.96875 -13.796875 C 16.0625 -14.742188 14.828125 -15.21875 13.265625 -15.21875 L 12.203125 -15.21875 L 12.203125 -0.96875 L 13.890625 -0.96875 C 16.609375 -0.96875 18.921875 -1.78125 20.828125 -3.40625 C 22.734375 -5.039062 24.039062 -7.128906 24.75 -9.671875 L 25.640625 -9.671875 L 25.28125 0 L 0.9375 0 L 0.9375 -0.96875 L 3.546875 -0.96875 L 3.546875 -30.078125 L 0.9375 -30.078125 Z M 0.9375 -31.046875 "/></g></g><g transform="translate(167.423246, 235.676145)"><g><path d="M 0.4375 -21.109375 L 11.140625 -21.109375 L 11.140625 -17.03125 C 12.109375 -20.050781 14.253906 -21.5625 17.578125 -21.5625 C 20.910156 -21.5625 22.929688 -19.960938 23.640625 -16.765625 C 24.679688 -19.960938 26.859375 -21.5625 30.171875 -21.5625 C 34.515625 -21.5625 36.6875 -19.09375 36.6875 -14.15625 L 36.6875 -0.796875 L 39.171875 -0.796875 L 39.171875 0 L 26.875 0 L 26.875 -0.796875 L 28.4375 -0.796875 L 28.4375 -15.21875 C 28.4375 -17.46875 28.242188 -18.78125 27.859375 -19.15625 C 27.679688 -19.332031 27.441406 -19.421875 27.140625 -19.421875 C 26.285156 -19.421875 25.53125 -18.84375 24.875 -17.6875 C 24.226562 -16.539062 23.90625 -15.082031 23.90625 -13.3125 L 23.90625 -0.796875 L 25.5 -0.796875 L 25.5 0 L 14.109375 0 L 14.109375 -0.796875 L 15.65625 -0.796875 L 15.65625 -15.21875 C 15.65625 -17.46875 15.460938 -18.78125 15.078125 -19.15625 C 14.898438 -19.332031 14.664062 -19.421875 14.375 -19.421875 C 13.539062 -19.421875 12.789062 -18.789062 12.125 -17.53125 C 11.46875 -16.28125 11.140625 -14.785156 11.140625 -13.046875 L 11.140625 -0.796875 L 12.734375 -0.796875 L 12.734375 0 L 0.4375 0 L 0.4375 -0.796875 L 2.890625 -0.796875 L 2.890625 -20.3125 L 0.4375 -20.3125 Z M 0.4375 -21.109375 "/></g></g><g transform="translate(206.808598, 235.676145)"><g><path d="M 16.640625 -11.9375 C 16.640625 -14.976562 16.488281 -17.023438 16.1875 -18.078125 C 15.894531 -19.128906 15.316406 -19.65625 14.453125 -19.65625 C 13.597656 -19.65625 12.832031 -19.097656 12.15625 -17.984375 C 11.476562 -16.878906 11.140625 -15.394531 11.140625 -13.53125 L 11.140625 -5.40625 C 11.140625 -4.132812 11.390625 -3.054688 11.890625 -2.171875 C 12.390625 -1.285156 13.125 -0.84375 14.09375 -0.84375 C 15.070312 -0.84375 15.738281 -1.492188 16.09375 -2.796875 C 16.457031 -4.097656 16.640625 -6.375 16.640625 -9.625 Z M 11.046875 -21.109375 L 11.046875 -17.609375 C 12.203125 -20.242188 14.242188 -21.5625 17.171875 -21.5625 C 19.710938 -21.5625 21.6875 -20.644531 23.09375 -18.8125 C 24.5 -16.976562 25.203125 -14.195312 25.203125 -10.46875 C 25.203125 -6.738281 24.4375 -3.988281 22.90625 -2.21875 C 21.382812 -0.445312 19.101562 0.4375 16.0625 0.4375 C 14.632812 0.4375 13.566406 0.257812 12.859375 -0.09375 C 12.148438 -0.445312 11.578125 -0.992188 11.140625 -1.734375 L 11.140625 9.765625 L 16.859375 9.765625 L 16.859375 10.5625 L 0.4375 10.5625 L 0.4375 9.765625 L 2.890625 9.765625 L 2.890625 -20.3125 L 0.53125 -20.3125 L 0.53125 -21.109375 Z M 11.046875 -21.109375 "/></g></g></g><g fill="#074ba5" fill-opacity="1"><g transform="translate(232.888081, 235.676145)"><g><path d="M 11.09375 -10.421875 L 12.375 -10.421875 L 12.375 -13.84375 C 12.375 -16.644531 12.21875 -18.523438 11.90625 -19.484375 C 11.59375 -20.453125 10.992188 -20.9375 10.109375 -20.9375 C 9.578125 -20.9375 9.097656 -20.796875 8.671875 -20.515625 C 8.242188 -20.234375 8.03125 -19.847656 8.03125 -19.359375 C 8.03125 -18.867188 8.117188 -18.375 8.296875 -17.875 L 9.40625 -17.875 C 9.644531 -17.25 9.765625 -16.5 9.765625 -15.625 C 9.765625 -14.757812 9.394531 -14.007812 8.65625 -13.375 C 7.914062 -12.738281 6.984375 -12.421875 5.859375 -12.421875 C 3.316406 -12.421875 2.046875 -13.648438 2.046875 -16.109375 C 2.046875 -19.742188 5.132812 -21.5625 11.3125 -21.5625 C 14.832031 -21.5625 17.265625 -20.960938 18.609375 -19.765625 C 19.953125 -18.566406 20.625 -16.367188 20.625 -13.171875 L 20.625 -4.171875 C 20.625 -2.628906 21.050781 -1.859375 21.90625 -1.859375 C 22.914062 -1.859375 23.507812 -3.382812 23.6875 -6.4375 L 24.359375 -6.390625 C 24.234375 -3.785156 23.742188 -1.992188 22.890625 -1.015625 C 22.035156 -0.046875 20.628906 0.4375 18.671875 0.4375 C 15.128906 0.4375 13.085938 -0.65625 12.546875 -2.84375 C 12.171875 -1.71875 11.597656 -0.890625 10.828125 -0.359375 C 10.054688 0.171875 8.929688 0.4375 7.453125 0.4375 C 3.078125 0.4375 0.890625 -1.347656 0.890625 -4.921875 C 0.890625 -7.023438 1.722656 -8.46875 3.390625 -9.25 C 5.066406 -10.03125 7.632812 -10.421875 11.09375 -10.421875 Z M 9.3125 -4.96875 C 9.3125 -3.425781 9.390625 -2.429688 9.546875 -1.984375 C 9.710938 -1.546875 10.023438 -1.328125 10.484375 -1.328125 C 10.941406 -1.328125 11.367188 -1.703125 11.765625 -2.453125 C 12.171875 -3.210938 12.375 -4.257812 12.375 -5.59375 L 12.375 -9.71875 L 12.0625 -9.71875 C 10.226562 -9.71875 9.3125 -8.367188 9.3125 -5.671875 Z M 9.3125 -4.96875 "/></g></g></g><g fill="#074ba5" fill-opacity="1"><g transform="translate(257.237812, 235.676145)"><g><path d="M 0.53125 -21.109375 L 11.21875 -21.109375 L 11.21875 -17.03125 C 11.695312 -18.394531 12.421875 -19.488281 13.390625 -20.3125 C 14.367188 -21.144531 15.847656 -21.5625 17.828125 -21.5625 C 22.410156 -21.5625 24.703125 -19.09375 24.703125 -14.15625 L 24.703125 -0.796875 L 27.1875 -0.796875 L 27.1875 0 L 14.640625 0 L 14.640625 -0.796875 L 16.453125 -0.796875 L 16.453125 -15.21875 C 16.453125 -16.988281 16.332031 -18.128906 16.09375 -18.640625 C 15.863281 -19.160156 15.4375 -19.421875 14.8125 -19.421875 C 13.863281 -19.421875 13.023438 -18.800781 12.296875 -17.5625 C 11.578125 -16.320312 11.21875 -14.816406 11.21875 -13.046875 L 11.21875 -0.796875 L 13.125 -0.796875 L 13.125 0 L 0.53125 0 L 0.53125 -0.796875 L 2.96875 -0.796875 L 2.96875 -20.3125 L 0.53125 -20.3125 Z M 0.53125 -21.109375 "/></g></g><g transform="translate(284.559183, 235.676145)"><g><path d="M 12.109375 0.4375 C 8.296875 0.4375 5.4375 -0.539062 3.53125 -2.5 C 1.625 -4.46875 0.671875 -7.203125 0.671875 -10.703125 C 0.671875 -14.210938 1.738281 -16.898438 3.875 -18.765625 C 6.019531 -20.628906 8.75 -21.5625 12.0625 -21.5625 C 18.78125 -21.5625 22.003906 -18.1875 21.734375 -11.4375 L 9.234375 -11.4375 L 9.234375 -9.71875 C 9.234375 -6.820312 9.597656 -4.632812 10.328125 -3.15625 C 11.066406 -1.675781 12.351562 -0.9375 14.1875 -0.9375 C 17.625 -0.9375 19.875 -2.769531 20.9375 -6.4375 L 21.734375 -6.296875 C 21.171875 -4.171875 20.15625 -2.515625 18.6875 -1.328125 C 17.226562 -0.148438 15.035156 0.4375 12.109375 0.4375 Z M 9.265625 -12.328125 L 13.84375 -12.328125 L 13.84375 -14.5 C 13.84375 -16.894531 13.703125 -18.53125 13.421875 -19.40625 C 13.140625 -20.28125 12.578125 -20.71875 11.734375 -20.71875 C 10.890625 -20.71875 10.265625 -20.25 9.859375 -19.3125 C 9.460938 -18.382812 9.265625 -16.78125 9.265625 -14.5 Z M 9.265625 -12.328125 "/></g></g></g><g fill="#074ba5" fill-opacity="1"><g transform="translate(307.445265, 235.676145)"><g><path d="M 0.265625 -33.265625 L 11.140625 -33.265625 L 11.140625 -0.796875 L 13.625 -0.796875 L 13.625 0 L 0.4375 0 L 0.4375 -0.796875 L 2.890625 -0.796875 L 2.890625 -32.46875 L 0.265625 -32.46875 Z M 0.265625 -33.265625 "/></g></g></g></svg>